<svg id="Layer_1" data-name="Layer 1" xmlns="http://www.w3.org/2000/svg" viewBox="0 0 730.1 675.4"><defs><style>.cls-1,.cls-5,.cls-6{fill:#7c7474;}.cls-2{fill:#3a3535;}.cls-3,.cls-5{font-size:96px;}.cls-3{fill:#efefef;stroke:#efefef;stroke-miterlimit:10;font-family:MyriadPro-Regular, Myriad Pro;}.cls-4{letter-spacing:-0.04em;}.cls-5,.cls-6{font-family:ImprintMT-Shadow, Imprint MT Shadow;}.cls-6{font-size:80px;}.cls-7{fill:#edebeb;}</style></defs><title>LOGO</title><polygon class="cls-1" points="41.78 0 42.29 0.41 42.31 1.06 41.82 1.3 41.31 0.9 41.29 0.24 41.78 0"/><path class="cls-2" d="M661.5,533.5c-45.21,0-82-31.4-82-70s36.79-70,82-70,82,31.4,82,70S706.71,533.5,661.5,533.5Z" transform="translate(-579 -141.6)"/><path d="M661.5,394c44.94,0,81.5,31.18,81.5,69.5S706.44,533,661.5,533,580,501.82,580,463.5,616.56,394,661.5,394m0-1c-45.56,0-82.5,31.56-82.5,70.5S615.94,534,661.5,534,744,502.44,744,463.5,707.06,393,661.5,393Z" transform="translate(-579 -141.6)"/><text class="cls-3" transform="translate(33.18 356.22)"><tspan class="cls-4">Y</tspan><tspan x="48.48" y="0">G</tspan></text><text class="cls-5" transform="translate(164.52 316.56)"><tspan xml:space="preserve"> YOUR</tspan></text><text class="cls-6" transform="translate(184.85 392.96)">GU</text><ellipse class="cls-1" cx="340.5" cy="357.13" rx="14.5" ry="19.73"/><polygon class="cls-1" points="345.53 321.4 345.94 321.85 345.95 322.57 345.56 322.84 345.16 322.39 345.14 321.67 345.53 321.4"/><polygon class="cls-1" points="340.56 393.49 326.99 364.65 354.13 364.65 340.56 393.49"/><ellipse class="cls-7" cx="340.55" cy="356.65" rx="5.47" ry="7.05"/><text class="cls-6" transform="translate(367.1 391.61)">DE</text></svg>